# xmcd CD database file
#
# Track frame offsets:
#	150
#	19772
#	38420
#	53232
#	68840
#	85645
#	101847
#	124480
#	140052
#	158315
#	181975
#	201237
#	224110
#	240532
#	257495
#	274507
#	294955
#	312127
#
# Disc length: 4393 seconds
#
# Revision: 0
# Processed by: cddbd v1.5PL3 Copyright (c) Steve Scherf et al.
# Submitted via: CDex 1.50Beta7
#
DISCID=fd112712
DTITLE=柳ジョージ＆レイニーウッド - ベストセレクション
DYEAR=1900
DGENRE=Blues
TTITLE0=WEEPING IN THE RAIN〜雨に泣いている〜
TTITLE1=微笑の法則〜スマイル・オン・ミー〜
TTITLE2=酔って候
TTITLE3=ヘイ・ダーリン
TTITLE4=時は流れて
TTITLE5=一人酔い
TTITLE6=プリズナー
TTITLE7=FENCEの向うのアメリカ
TTITLE8=「祭ばやしが聞こえる」のテーマ
TTITLE9=本牧綺談
TTITLE10=同じ時代に
TTITLE11=へヴィ・デイズ
TTITLE12=遺言
TTITLE13=漂うままに
TTITLE14=クロス アイド ウーマン
TTITLE15=少年の日
TTITLE16=シンフル・ガール
TTITLE17=When the moonlight up the night
EXTD=
EXTT0=
EXTT1=
EXTT2=
EXTT3=
EXTT4=
EXTT5=
EXTT6=
EXTT7=
EXTT8=
EXTT9=
EXTT10=
EXTT11=
EXTT12=
EXTT13=
EXTT14=
EXTT15=
EXTT16=
EXTT17=
PLAYORDER=
